<?xml version="1.0" encoding="UTF-8"?>
<svg id="Camada_1" xmlns="http://www.w3.org/2000/svg" viewBox="0 0 54 32">
  <defs>
    <style>
      .cls-1 {
        fill: #fff;
      }

      .cls-2 {
        fill: #0094ff;
      }
    </style>
  </defs>
  <path class="cls-2" d="M1.06,8.74c0-3.44,2.79-6.23,6.23-6.23h43.58c1.15,0,2.08.93,2.08,2.08v18.68c0,3.44-2.79,6.23-6.23,6.23H3.14c-1.15,0-2.08-.93-2.08-2.08V8.74Z"/>
  <path class="cls-1" d="M9.91,21.19c-.1,0-.19-.04-.26-.11-.07-.07-.11-.16-.11-.26v-10.13c0-.11.03-.21.09-.28.07-.07.17-.11.28-.11h3.8c3.05,0,4.61,1.41,4.67,4.23.02.6.03,1.01.03,1.21s-.01.6-.03,1.2c-.04,1.45-.43,2.53-1.17,3.22-.74.68-1.88,1.03-3.42,1.03h-3.88ZM13.71,19.4c.87,0,1.5-.19,1.88-.58.38-.39.59-1.04.61-1.93.02-.62.03-1.01.03-1.17,0-.17-.01-.55-.03-1.15-.02-.85-.24-1.48-.65-1.88-.4-.4-1.04-.61-1.91-.61h-1.93v7.32h2.01ZM23.78,21.34c-1.15,0-2.07-.33-2.75-1-.67-.67-1.03-1.62-1.07-2.83l-.02-.39.02-.39c.05-1.18.42-2.11,1.09-2.79.68-.67,1.6-1.01,2.74-1.01,1.22,0,2.17.37,2.83,1.12.67.75,1.01,1.74,1.01,2.99v.33c0,.1-.04.19-.11.26s-.17.11-.28.11h-5.17v.12c.02.57.18,1.05.47,1.45.3.38.71.58,1.23.58.61,0,1.11-.24,1.48-.72.09-.11.17-.19.22-.22.06-.03.15-.05.26-.05h1.34c.09,0,.17.03.23.09.07.05.11.12.11.2,0,.25-.15.54-.45.89-.29.33-.71.62-1.26.87-.55.25-1.19.37-1.91.37ZM25.51,16.44v-.05c0-.61-.16-1.11-.47-1.48-.3-.37-.72-.56-1.26-.56s-.96.19-1.26.56-.45.87-.45,1.48v.05h3.44ZM31.85,21.19c-.16,0-.27-.03-.36-.09-.08-.07-.15-.17-.2-.3l-2.91-7.22-.03-.14c0-.09.03-.17.09-.23.07-.07.16-.11.25-.11h1.26c.2,0,.33.1.4.3l2.07,5.46,2.07-5.46c.03-.07.08-.14.14-.2.07-.06.16-.09.26-.09h1.28c.08,0,.16.04.22.11.07.06.11.14.11.23,0,.06,0,.11-.02.14l-2.93,7.22c-.05.12-.12.22-.2.3-.08.06-.2.09-.36.09h-1.15ZM40.73,21.34c-.78,0-1.43-.11-1.96-.34-.53-.24-.92-.51-1.18-.82-.25-.32-.37-.6-.37-.82,0-.1.04-.19.11-.25s.16-.09.25-.09h1.23c.09,0,.17.04.23.11.04.03.15.12.33.28.18.17.38.3.62.39s.5.14.79.14c.42,0,.76-.08,1.03-.25.27-.17.4-.39.4-.68,0-.22-.06-.39-.19-.53-.11-.13-.33-.25-.64-.36-.31-.11-.77-.23-1.39-.36-.88-.19-1.54-.47-1.96-.86-.42-.38-.62-.89-.62-1.53,0-.42.12-.8.37-1.17.25-.37.62-.67,1.11-.9.5-.24,1.09-.36,1.77-.36s1.3.11,1.81.34c.51.22.89.48,1.15.79.27.3.4.57.4.81,0,.09-.04.18-.11.25-.06.06-.14.09-.23.09h-1.15c-.08,0-.17-.04-.26-.11-.07-.05-.19-.15-.34-.3-.16-.15-.34-.26-.54-.34-.21-.08-.45-.12-.73-.12-.38,0-.68.08-.9.25-.21.17-.31.38-.31.65,0,.2.05.36.16.48.1.12.31.24.61.36.3.11.75.23,1.35.34,1,.2,1.71.5,2.13.92.44.42.65.92.65,1.53,0,.73-.32,1.32-.95,1.77s-1.52.68-2.66.68Z"/>
</svg>